<?xml version="1.0" encoding="UTF-8" standalone="no"?>
<!-- Generator: Adobe Illustrator 21.0.2, SVG Export Plug-In . SVG Version: 6.00 Build 0)  -->

<svg
   version="1.1"
   x="0px"
   y="0px"
   viewBox="0 0 14.186 14.015"
   style="enable-background:new 0 0 14.186 14.015;"
   xml:space="preserve"
   id="svg2"
   sodipodi:docname="Commutex_Inc_logo.svg"
   inkscape:version="1.4.2 (ebf0e940, 2025-05-08)"
   inkscape:export-filename="../Cloutgrid/cloutgrid_logo_dp.png"
   inkscape:export-xdpi="10000"
   inkscape:export-ydpi="10000"
   xmlns:inkscape="http://www.inkscape.org/namespaces/inkscape"
   xmlns:sodipodi="http://sodipodi.sourceforge.net/DTD/sodipodi-0.dtd"
   xmlns="http://www.w3.org/2000/svg"
   xmlns:svg="http://www.w3.org/2000/svg"><defs
   id="defs2" /><sodipodi:namedview
   id="namedview2"
   pagecolor="#ffffff"
   bordercolor="#000000"
   borderopacity="0.25"
   inkscape:showpageshadow="2"
   inkscape:pageopacity="0.0"
   inkscape:pagecheckerboard="0"
   inkscape:deskcolor="#d1d1d1"
   inkscape:zoom="62.647162"
   inkscape:cx="7.1112559"
   inkscape:cy="7.0075002"
   inkscape:window-width="2560"
   inkscape:window-height="1387"
   inkscape:window-x="0"
   inkscape:window-y="25"
   inkscape:window-maximized="1"
   inkscape:current-layer="svg2"
   inkscape:lockguides="false"
   showguides="true"
   inkscape:export-bgcolor="#ffffff00" />
<g
   id="Commutex_x5F_Inc"
   transform="matrix(0.35635266,0.35635266,-0.35635266,0.35635266,6.1178199,1.9804679)"
   style="display:inline">
	<path
   d="m 4.297,0 c 3.294,0 6.588,-0.002 9.882,0.001 -0.002,2.396 0,4.793 -10e-4,7.19 0.004,0.874 -0.01,1.749 0.008,2.622 C 13.673,9.293 13.147,8.787 12.634,8.267 12.048,7.736 11.513,7.15 10.94,6.606 10.343,7.201 9.749,7.798 9.153,8.393 8.761,8.799 8.22,9.045 7.664,9.11 7.391,9.112 7.113,9.136 6.845,9.071 6.382,8.98 5.958,8.743 5.61,8.427 5.236,8.048 4.962,7.558 4.885,7.027 4.763,6.346 4.963,5.622 5.389,5.08 5.64,4.774 5.942,4.517 6.212,4.228 6.608,3.845 6.988,3.445 7.386,3.064 6.986,2.699 6.628,2.292 6.224,1.931 5.583,1.286 4.935,0.648 4.297,0 Z"
   id="path1"
   sodipodi:nodetypes="cccccccccccccccc"
   style="opacity:1;mix-blend-mode:normal;fill:#f97316;fill-opacity:1"
   inkscape:label="path1" />
	<path
   d="M 0.369,4.348 C 0.95,2.607 2.212,1.125 3.781,0.187 4.659,1.059 5.531,1.936 6.407,2.809 6.496,2.897 6.582,2.989 6.682,3.067 6.355,3.351 6.064,3.675 5.748,3.972 5.379,4.31 4.995,4.647 4.74,5.084 4.451,5.57 4.293,6.137 4.311,6.703 4.321,7.354 4.574,7.986 4.966,8.5 5.416,9.059 6.064,9.461 6.769,9.602 7.502,9.751 8.287,9.62 8.928,9.233 9.196,9.075 9.44,8.877 9.655,8.652 c 0.299,-0.301 0.601,-0.598 0.9,-0.898 0.133,-0.118 0.262,-0.24 0.379,-0.375 0.275,0.261 0.538,0.534 0.807,0.801 0.516,0.464 0.979,0.983 1.488,1.454 0.227,0.225 0.453,0.45 0.677,0.677 -0.665,1.117 -1.615,2.062 -2.745,2.706 -1.52,0.888 -3.365,1.197 -5.094,0.872 C 5.262,13.735 4.472,13.469 3.765,13.051 2.492,12.34 1.445,11.242 0.785,9.942 -0.091,8.233 -0.24,6.17 0.369,4.348 Z"
   id="path2"
   sodipodi:nodetypes="ccccccccccccccccccccc"
   style="display:inline;fill:#172554;fill-opacity:1" />
</g>
<g
   id="Layer_1"
   inkscape:label="Layer_1"
   style="display:inline">
</g>
</svg>
